PathFileType	4	(X/Y/Z)	C:/Users/beibeiliu/ov580/test_trc\sequence.29_training_dense_right.trc
DataRate	CameraRate	NumFrames	NumMarkers	Units	OrigDataRate	OrigDataStartFrame	OrigNumFrames
120	120	22	19	mm	120	298	396
Frame#	Time	ThumbCMC			ThumbMCP			ThumbIP			ThumbTip			IndexMCP			IndexPIP			IndexTip			MiddleMCP			MiddlePIP			MiddleTip			RingMCP			RingPIP			RingTip			PinkyMCP			PinkyPIP			PinkyTip			BackHand1			BackHand2			BackHand3	
		X0	Y0	Z0	X1	Y1	Z1	X2	Y2	Z2	X3	Y3	Z3	X4	Y4	Z4	X5	Y5	Z5	X6	Y6	Z6	X7	Y7	Z7	X8	Y8	Z8	X9	Y9	Z9	X10	Y10	Z10	X11	Y11	Z11	X12	Y12	Z12	X13	Y13	Z13	X14	Y14	Z14	X15	Y15	Z15	X16	Y16	Z16	X17	Y17	Z17	X18	Y18	Z18	
297	2.475	147.557	-3.67456	30.7775	144.438	-14.8488	4.56573	141.539	-21.4661	-15.6695	136.33	-25.0745	-33.2199	195.287	-26.9197	-20.7857	203.942	-39.4384	-34.066	217.456	-61.1027	-49.3898	216.387	-23.6444	-14.2871	225.954	-31.9689	-32.226	243.342	-34.1631	-42.3083	225.206	-25.4794	5.38442	238.382	-39.2462	-7.06651	254.237	-51.0273	-15.5729	230.103	-15.8052	26.1072	245.607	-18.2416	18.299	257.132	-15.9993	9.11862	200.823	5.07511	31.6312	184.409	17.2036	44.7554	170.504	10.2903	21.2319	
298	2.48333	146.115	-1.91929	29.8366	144.743	-13.0504	5.80453	144.439	-20.3966	-14.9924	135.397	-22.0015	-31.2419	193.075	-24.8803	-20.9141	202.686	-38.4101	-41.6798	214.015	-52.2833	-52.7895	213.65	-20.6706	-14.8583	224.813	-27.7754	-33.0641	239.228	-30.066	-50.0294	225.975	-22.5471	2.01047	239.037	-31.4687	-7.78967	255.436	-41.3404	-23.9424	233.997	-12.7491	25.4373	243.584	-15.0364	14.8116	256.793	-11.6067	5.68823	202.922	4.75056	29.5121	185.321	19.7442	47.979	175.232	8.83437	23.3767	
299	2.49167	149.066	-2.72105	31.1196	143.369	-11.9334	2.78282	141.261	-18.9083	-13.1972	134.647	-21.9205	-32.5433	189.911	-22.6321	-22.0713	199.045	-32.8264	-39.5976	210.546	-44.852	-57.3002	214.847	-18.0305	-19.0673	225.043	-22.6762	-31.9456	237.969	-22.9355	-50.2028	226.743	-17.3352	-0.839999	240.518	-24.5984	-13.6223	254.917	-30.2116	-27.5874	230.494	-11.4676	25.4698	247.289	-11.9046	12.6018	261.784	-6.33826	3.82243	200.131	8.18365	29.8675	190.599	19.2996	46.6223	172.332	10.0425	22.1632	
300	2.5	151.21	-2.82112	32.2924	141.866	-12.9036	6.66366	140.006	-18.3819	-17.0384	134.87	-21.6936	-27.8335	190.276	-21.9304	-25.2224	196.87	-31.8088	-42.1579	205.473	-42.0995	-63.0518	212.445	-15.1729	-19.3379	219.72	-19.598	-34.5951	238.857	-17.6634	-52.4944	226.368	-13.7939	0.625995	239.181	-18.5706	-13.7982	250.699	-22.4761	-29.1156	236.078	-9.35473	22.8304	251.278	-9.12735	14.6064	260.192	-4.57726	6.5094	201.661	6.2353	25.8449	189.363	18.8522	44.6537	173.032	10.0288	21.5513	
301	2.50833	146.924	-3.63642	31.6489	144.915	-15.2015	7.85054	137.924	-20.4384	-13.1229	133.482	-22.6601	-29.6387	187.801	-22.546	-25.3824	193.707	-32.7103	-43.4775	202.541	-40.0965	-63.9728	214.807	-14.5574	-20.1876	221.646	-17.2084	-36.96	237.05	-13.4768	-55.5652	227.018	-14.4012	-2.07682	237.586	-16.5147	-14.8586	251.369	-17.1764	-33.2294	234.896	-11.0181	19.8663	247.969	-11.7987	16.5078	265.851	-2.24884	6.82525	202.135	5.18191	29.6409	189.543	19.8294	48.3894	178.551	7.93599	21.8749	
302	2.51667	152.327	-6.75535	33.3418	146.586	-18.2048	11.0909	139.682	-23.4619	-10.2946	133.463	-27.1458	-22.9402	185.341	-23.9454	-22.9012	194.26	-33.6898	-42.9175	198.741	-39.8744	-64.9423	210.729	-15.8748	-16.7852	222.47	-16.9919	-36.4721	234.013	-10.6648	-55.3342	229.389	-12.9889	-0.245286	241.596	-15.7135	-13.9068	254.561	-14.3533	-29.8082	235.857	-11.6383	21.7555	251.361	-12.1641	16.967	265.334	-6.34349	8.82284	201.585	3.78035	26.5653	188.407	17.6449	49.3008	177.443	7.10057	22.3969	
303	2.525	150.087	-8.76957	34.0521	145.978	-21.5717	10.8892	136.801	-27.752	-9.64875	127.744	-30.7064	-18.5874	187.117	-24.7867	-21.2832	189.075	-33.7225	-42.758	194.053	-37.6304	-60.3516	213.799	-16.2013	-18.6189	218.425	-17.2732	-39.3961	229.87	-11.9159	-54.7451	225.522	-14.9889	2.89846	242.089	-15.7726	-12.6938	253.482	-14.0555	-30.2434	239.739	-12.3303	23.7259	250.114	-14.8248	17.7762	264.337	-6.58989	4.62513	202.346	0.302695	26.1796	190.194	13.9853	47.5745	174.325	4.45125	23.6444	
304	2.53333	152.213	-12.1383	35.8945	146.079	-25.0419	14.3348	140.017	-31.9891	-5.24079	129.628	-35.9431	-16.4593	184.603	-28.151	-24.3207	188.994	-34.3089	-38.9649	197.022	-37.9347	-61.7715	210.269	-18.4033	-18.3411	219.498	-19.3306	-35.0479	229.097	-11.5154	-57.3945	226.803	-17.9995	-0.76603	241.734	-17.9047	-15.4474	252.354	-16.902	-27.2347	239.357	-14.9807	25.3999	248.924	-17.874	18.7953	264.564	-11.7031	12.3993	203.162	-1.0034	28.0544	192.069	12.1802	47.1976	173.054	4.31626	24.4773	
305	2.54167	150.976	-14.2118	37.9123	144.286	-28.448	20.2359	138.945	-35.7287	-3.86799	127.849	-39.5361	-16.9164	184.936	-29.182	-19.5475	187.877	-35.3403	-37.8363	193.833	-36.4342	-58.8573	208.638	-20.621	-14.2091	218.156	-21.9932	-36.273	227.856	-15.2222	-53.6129	227.716	-20.4534	0.636177	237.506	-21.9111	-11.4087	250.846	-19.5377	-27.5557	236.252	-18.8477	29.1548	253.587	-19.7202	19.0574	262.407	-16.4477	8.82624	202.143	-1.95803	32.4959	194.237	11.0367	49.7793	172.788	0.514511	26.7954	
306	2.55	149.092	-15.9694	36.5699	141.717	-31.2244	19.0975	133.219	-38.4536	-1.55802	125.783	-43.1332	-11.1206	182.524	-30.9257	-22.8289	190.459	-36.1428	-37.482	196.251	-35.8843	-57.5739	209.991	-22.4008	-14.6757	217.349	-23.7457	-35.972	229.174	-17.2168	-51.0812	225.37	-22.899	3.59623	238.135	-25.1733	-11.4877	253.752	-20.8429	-25.3129	236.004	-21.1753	24.6785	248.383	-23.7985	21.1427	265.745	-15.5559	10.1847	199.674	-3.78553	32.7811	192.099	8.68563	53.828	177.219	-1.96199	27.0066	
307	2.55833	149.684	-17.9077	37.5145	144.319	-33.4847	19.592	135.172	-40.1799	1.82316	120.867	-43.4349	-13.5885	187.859	-31.882	-20.6966	187.698	-37.0523	-41.3394	192.038	-37.2048	-57.6824	208.841	-24.0475	-15.7424	217.9	-25.1922	-34.3944	227.19	-18.8682	-50.3261	227.841	-23.4115	5.27446	236.958	-27.3716	-11.3522	252.01	-23.4662	-26.1998	237.054	-23.3313	29.4385	251.491	-25.8728	19.8138	263.957	-20.2123	8.87625	203.176	-7.06174	33.0778	189.368	4.7043	49.0016	174.838	-2.32824	26.736	
308	2.56667	151.087	-18.2068	37.3847	142.026	-32.9167	22.4877	133.787	-41.6104	3.05081	123.608	-46.0296	-12.2878	186.461	-32.0994	-18.0047	193.11	-37.2962	-39.5464	195.491	-36.9728	-54.542	211.972	-25.1996	-14.2368	218.802	-26.5814	-28.6587	229.492	-20.233	-49.5557	228.171	-24.4335	4.87618	239.457	-27.3171	-6.64757	249.147	-26.677	-23.7673	231.468	-25.4135	28.3314	248.698	-27.7321	22.4747	265.524	-21.0182	11.536	202.007	-7.78173	33.1184	191.16	5.54833	49.927	173.81	-4.57286	27.5754	
309	2.575	150.394	-18.7043	37.4391	141.447	-34.4177	15.6853	132.63	-43.2001	-3.25684	125.37	-47.8939	-13.2449	183.053	-33.338	-20.9652	191.079	-36.8352	-36.7634	196.439	-37.131	-57.0535	210.186	-25.0978	-10.3912	221.554	-26.1191	-31.6366	231.454	-20.6536	-48.1907	227.401	-25.6782	3.53479	239.905	-26.5731	-6.76263	253.675	-24.7515	-23.1425	235.618	-25.9401	30.3086	246.973	-28.1496	23.655	262.54	-22.6919	14.6198	198.649	-6.04491	34.6878	191.274	6.55413	53.1406	176.237	-3.48043	26.5233	
310	2.58333	148.923	-20.4106	34.2102	144.928	-35.7769	17.9114	132.286	-42.9197	0.0811955	125.783	-48.117	-14.4528	185.251	-33.1348	-21.3163	191.138	-36.459	-36.146	198.216	-36.5498	-55.0363	210.973	-26.2753	-11.7683	221.844	-26.6278	-28.193	229.918	-19.9684	-49.5481	227.209	-24.6585	9.08619	239.703	-28.0245	-10.3824	252.85	-26.2642	-24.857	237.481	-25.1084	30.6486	250.675	-29.6873	19.9853	266.664	-23.2817	14.4658	200.224	-6.85348	31.6322	189.026	4.41124	51.9493	175.566	-5.67028	26.4685	
311	2.59167	151.486	-20.1633	34.9116	142.854	-35.0956	20.0333	137.356	-43.3419	1.38573	125.494	-48.5786	-12.2465	187.712	-31.7882	-19.4764	192.103	-36.1614	-36.107	197.822	-33.5588	-60.4627	210.78	-26.0392	-14.6868	222.163	-25.495	-29.2586	231.943	-19.4994	-47.3052	226.063	-26.1944	6.08412	242.756	-27.0139	-9.19617	255.777	-25.406	-24.0438	235.493	-25.6517	32.9416	251.703	-27.6157	26.0835	266.01	-24.2453	13.9288	201.295	-8.55475	33.7461	191.555	4.59113	51.5198	176.174	-5.15879	28.2924	
312	2.6	150.289	-20.0516	35.2732	144.066	-35.0845	18.0145	134.797	-43.8585	-2.12484	127.512	-49.5007	-15.6675	186.61	-31.9714	-21.7898	195.054	-34.4395	-38.9474	199.595	-32.9445	-55.2869	211.309	-24.8513	-13.8579	221.892	-24.5185	-31.3942	233.527	-18.5235	-48.3536	231.241	-24.9036	4.94229	242.696	-27.399	-7.6349	257.199	-23.806	-23.8828	238.519	-25.2013	28.3521	252.63	-28.7293	22.2572	270.82	-21.8365	18.3148	205.15	-4.84199	34.8183	189.711	4.23162	48.178	175.103	-3.58737	24.0469	
313	2.60833	153.741	-20.1283	32.5857	142.616	-35.1527	17.2331	135.498	-43.1962	-1.7969	125.413	-48.145	-13.975	190.966	-30.203	-18.5176	193.591	-33.9292	-40.227	200.369	-30.9242	-56.6018	216.977	-22.4286	-12.2996	225.516	-23.4898	-30.015	234.843	-16.4235	-48.7254	231.053	-22.7828	9.74764	244.393	-25.0053	-5.29832	257.504	-22.9461	-19.7049	240.132	-24.2899	30.0303	254.077	-26.9934	21.4329	267.79	-20.6853	20.712	204.768	-7.23459	31.4434	192.153	7.82417	54.2283	177.889	-2.81391	26.9518	
314	2.61667	149.282	-18.5738	34.058	146.09	-34.9367	19.1654	140.645	-44.5137	-4.74966	128.858	-48.5624	-15.7606	191.047	-29.4425	-21.89	194.798	-32.5491	-37.5894	203.57	-30.6724	-56.3184	215.596	-21.9889	-12.7657	226.271	-21.9176	-33.0838	238.989	-15.3868	-45.2145	232.4	-22.4802	7.64338	243.38	-25.2219	-6.71043	258.344	-21.9319	-22.6117	236.964	-23.8246	29.2397	253.089	-26.7998	22.9083	266.737	-20.7147	15.9931	208.066	-5.71457	33.5897	189.94	5.50088	49.8832	176.151	-2.91028	26.2446	
315	2.625	152.834	-18.1101	36.1589	147.111	-35.1161	19.2127	141.752	-44.3036	-1.54937	127.864	-48.5093	-13.3729	193.341	-28.8961	-19.0705	200.129	-31.7249	-34.71	205.216	-28.3239	-59.3399	214.804	-21.7826	-11.3315	229.336	-20.5594	-29.7247	237.228	-15.5666	-46.8585	235.716	-21.268	7.07476	245.128	-23.9745	-4.57995	260.024	-20.8563	-22.1437	242.751	-22.1969	30.2801	255.42	-26.0064	23.5987	273.185	-18.8265	19.9723	207.259	-4.5909	32.5266	191.51	6.79661	52.8142	178.985	-1.04509	25.2983	
316	2.63333	153.368	-17.3223	34.5516	151.859	-35.1808	15.9563	142.206	-42.6938	-0.539849	131.082	-48.0414	-15.2653	193.178	-28.4721	-22.7381	199.872	-30.8709	-40.6949	208.853	-27.4657	-57.7265	216.431	-20.9955	-13.8588	228.316	-19.9237	-27.043	242.781	-11.9721	-44.8646	234.796	-21.5042	6.38414	249.672	-21.3463	-4.62932	266.009	-17.8136	-18.3756	244.099	-21.6461	30.3441	254.365	-23.5713	26.5679	273.6	-17.0918	22.1664	206.124	-2.33785	36.3708	191.949	10.7166	54.0979	178.367	-1.21521	24.1058	
317	2.64167	157.184	-18.3479	31.5022	150.329	-33.7796	11.9808	143.623	-42.8992	-7.82077	138.735	-47.4625	-18.4271	196.135	-25.2557	-21.7129	202.372	-27.8676	-36.6576	208.233	-26.4785	-55.2538	222.344	-17.7649	-13.9821	234.813	-17.4907	-27.4978	246.958	-10.2115	-45.7254	232.271	-20.1299	8.03177	253.314	-20.2436	-4.90803	266.931	-17.9291	-19.4423	243.856	-19.3711	33.2192	257.54	-22.6076	27.0017	273.562	-19.3352	19.4696	212.005	-1.57372	33.7372	196.22	10.9491	52.5592	181.96	-1.33611	25.0094	
318	2.65	159.523	-16.1574	28.8883	153.206	-31.4112	14.7988	148.114	-40.6104	-8.14883	139.645	-45.2003	-19.0453	200.013	-23.5616	-20.6206	207.989	-26.1938	-38.7022	213.698	-22.2779	-57.5977	224.852	-16.7943	-12.2778	233.204	-17.4368	-27.8968	248.552	-7.79783	-46.823	236.718	-18.7833	10.1815	253.62	-19.4346	-6.89551	267.784	-16.5159	-20.5752	245.907	-18.8409	34.0856	260.164	-21.2249	31.3473	275.759	-18.0411	21.3879	208.678	-1.95236	33.2859	196.414	8.86843	51.4523	186.215	0.503671	26.4064	
